<?xml version="1.0" encoding="utf-8"?>
<!-- Generator: Adobe Illustrator 23.0.3, SVG Export Plug-In . SVG Version: 6.00 Build 0)  -->
<svg version="1.1" id="Layer_1" xmlns="http://www.w3.org/2000/svg" xmlns:xlink="http://www.w3.org/1999/xlink" x="0px" y="0px"
	 width="165.5px" height="30px" viewBox="0 0 165.5 30" style="enable-background:new 0 0 165.5 30;" xml:space="preserve">
<g>
	<g>
		<path d="M63.9,1h5.2v18.8h10v4.7H63.9V1z"/>
		<path d="M80.7,0h5.4v4.5h-5.4V0z M80.9,6.5H86v18h-5.1V6.5z"/>
		<path d="M93.1,22.2v2.3H88V0h5.1v9.1c1.2-1.7,3-2.9,5.6-2.9c4.2,0,8.2,3.3,8.2,9.3v0.1c0,6-3.9,9.3-8.2,9.3
			C95.9,24.9,94.3,23.6,93.1,22.2z M101.8,15.6L101.8,15.6c0-3.1-2-5-4.4-5s-4.4,2-4.4,5v0.1c0,3,2,5,4.4,5
			C99.7,20.5,101.8,18.6,101.8,15.6z"/>
		<path d="M108.3,6.5h5.1v3.6c1-2.5,2.7-4.1,5.7-4v5.3h-0.3c-3.4,0-5.5,2.1-5.5,6.4v6.7h-5.1v-18H108.3z"/>
		<path d="M136.4,6.5h5.1v3.6c1-2.5,2.7-4.1,5.7-4v5.3H147c-3.4,0-5.5,2.1-5.5,6.4v6.7h-5.1V6.5z"/>
		<path d="M160.2,6.5h5.3l-7,18.5c-1.4,3.7-2.9,5-5.9,5c-1.9,0-3.2-0.5-4.5-1.2l1.7-3.7c0.7,0.4,1.5,0.7,2.2,0.7
			c0.9,0,1.3-0.3,1.8-1.2l-6-18.1h5.4l3.1,11.8L160.2,6.5z"/>
	</g>
	<path d="M132.2,8.3c-1.3-1.3-3.3-2-6.1-2c-2.4,0-4.1,0.4-5.7,0.9v4.4c1.6-0.6,3-1,4.9-1c2.6,0,3.9,1.2,3.9,3.3v0.3
		c-1.3-0.4-2.6-0.7-4.4-0.7c-4.3,0-7.3,1.8-7.3,5.7v0.1c0,3.6,2.8,5.5,6.2,5.5c2.5,0,4.2-0.9,5.4-2.3v1.9h4.9V14.1
		C134.2,11.7,133.5,9.7,132.2,8.3z M129.3,18.2c0,1.8-1.6,3.2-4,3.2c-1.7,0-2.8-0.8-2.8-2.2v-0.1c0-1.6,1.4-2.5,3.5-2.5
		c1.2,0,2.4,0.3,3.3,0.7V18.2z"/>
	<path d="M7.1,5.8H0V1h19.5v4.8h-7.2v18.7H7.1V5.8z"/>
	<path d="M20.3,0h5.1v9.1c1.2-1.5,2.7-2.9,5.3-2.9c3.9,0,6.1,2.6,6.1,6.7v11.6h-5.1v-10c0-2.4-1.1-3.7-3.1-3.7
		c-1.9,0-3.2,1.2-3.2,3.7v10h-5.1C20.3,24.5,20.3,0,20.3,0z"/>
	<path d="M37.6,15.6L37.6,15.6c0-5.2,3.7-9.4,8.9-9.4c6,0,8.8,4.7,8.8,9.8c0,0.4,0,0.9-0.1,1.3H42.7c0.5,2.3,2.1,3.5,4.4,3.5
		c1.7,0,3-0.5,4.4-1.8l2.9,2.6C52.7,23.7,50.3,25,47,25C41.6,24.9,37.6,21.1,37.6,15.6z M50.3,14.1c-0.3-2.3-1.6-3.8-3.8-3.8
		c-2.1,0-3.5,1.5-3.9,3.8H50.3z"/>
</g>
</svg>
