<?xml version="1.0" encoding="utf-8"?>
<!-- Generator: Adobe Illustrator 23.1.1, SVG Export Plug-In . SVG Version: 6.00 Build 0)  -->
<svg version="1.1" xmlns="http://www.w3.org/2000/svg" xmlns:xlink="http://www.w3.org/1999/xlink" x="0px" y="0px" width="190px"
	 height="190px" viewBox="0 0 190 190" style="enable-background:new 0 0 190 190;" xml:space="preserve">
<style type="text/css">
	.st0{display:none;}
	.st1{display:inline;}
	.st2{fill:none;stroke:#000000;stroke-width:5;stroke-linecap:round;stroke-miterlimit:10;}
	.st3{fill:none;stroke:#000000;stroke-width:4;stroke-linecap:round;stroke-miterlimit:10;}
	.st4{fill:#FFFFFF;stroke:#000000;stroke-width:5;stroke-miterlimit:10;}
	.st5{fill:none;stroke:#000000;stroke-width:4;stroke-linecap:round;stroke-linejoin:round;stroke-miterlimit:10;}
	.st6{display:inline;fill:none;stroke:#231F20;stroke-width:4;stroke-miterlimit:10;}
	
		.st7{display:inline;fill:#FFFFFF;stroke:#231F20;stroke-width:4;stroke-linecap:round;stroke-linejoin:round;stroke-miterlimit:10;}
	.st8{fill:none;stroke:#000000;stroke-width:5;stroke-linecap:round;stroke-linejoin:round;stroke-miterlimit:10;}
	.st9{display:inline;fill:none;stroke:#000000;stroke-width:5;stroke-linecap:round;stroke-linejoin:round;stroke-miterlimit:10;}
	.st10{display:inline;fill:none;stroke:#000000;stroke-width:4;stroke-linecap:round;stroke-linejoin:round;stroke-miterlimit:10;}
	
		.st11{display:inline;fill:#FFFFFF;stroke:#000000;stroke-width:4;stroke-linecap:round;stroke-linejoin:round;stroke-miterlimit:10;}
	.st12{fill:#FFFFFF;stroke:#000000;stroke-width:5;stroke-linecap:round;stroke-linejoin:round;stroke-miterlimit:10;}
	.st13{display:inline;fill:none;}
	.st14{fill:#F906A8;}
	.st15{display:inline;opacity:0.27;}
	.st16{display:inline;fill:none;stroke:#2E2E2E;stroke-width:4;stroke-miterlimit:10;}
	
		.st17{display:inline;fill:none;stroke:#2E2E2E;stroke-width:5.2371;stroke-linecap:round;stroke-linejoin:round;stroke-miterlimit:10;}
	.st18{display:inline;fill:none;stroke:#2E2E2E;stroke-width:4;stroke-linecap:round;stroke-linejoin:round;stroke-miterlimit:10;}
	.st19{display:inline;fill:none;stroke:#2E2E2E;stroke-width:5;stroke-miterlimit:10;}
	.st20{fill:none;stroke:#2E2E2E;stroke-width:5;stroke-linecap:round;stroke-miterlimit:10;}
	.st21{fill:none;stroke:#2E2E2E;stroke-width:4;stroke-linecap:round;stroke-miterlimit:10;}
	.st22{fill:none;stroke:#2E2E2E;stroke-width:4;stroke-linecap:round;stroke-linejoin:round;stroke-miterlimit:10;}
	.st23{fill:none;stroke:#2E2E2E;stroke-width:5;stroke-linecap:round;stroke-linejoin:round;stroke-miterlimit:10;}
	.st24{display:inline;fill:none;stroke:#2E2E2E;stroke-width:5;stroke-linecap:round;stroke-linejoin:round;stroke-miterlimit:10;}
	
		.st25{display:inline;fill:#FFFFFF;stroke:#2E2E2E;stroke-width:4;stroke-linecap:round;stroke-linejoin:round;stroke-miterlimit:10;}
	.st26{display:inline;fill:#2E2E2E;}
	.st27{fill:none;stroke:#2E2E2E;stroke-width:5;stroke-miterlimit:10;}
	.st28{fill:none;stroke:#2E2E2E;stroke-width:4;stroke-miterlimit:10;}
</style>
<g id="Recreation_Graphics" class="st0">
	<rect x="1139.6" y="115" class="st13" width="189.1" height="59.3"/>
	<text transform="matrix(1 0 0 1 1139.5647 136.9092)" class="st1"><tspan x="0" y="0" style="font-family:'Gotham-Medium'; font-size:30px;">Creative  </tspan><tspan x="0" y="36" style="font-family:'Gotham-Medium'; font-size:30px;">and learning</tspan></text>
	<rect x="1124.9" y="455.4" class="st13" width="177" height="59.3"/>
	<text transform="matrix(1 0 0 1 1124.8972 477.2866)" class="st1"><tspan x="0" y="0" style="font-family:'Gotham-Medium'; font-size:30px;">Locations  </tspan><tspan x="0" y="36" style="font-family:'Gotham-Medium'; font-size:30px;">and Rentals</tspan></text>
	<g class="st1">
		<path class="st2" d="M1093.1,459.2c0,20-36.2,76.9-36.2,76.9s-36.2-56.9-36.2-76.9c0-20,16.2-36.2,36.2-36.2
			C1076.9,423,1093.1,439.2,1093.1,459.2z"/>
		<path class="st3" d="M1078.3,456.9c0,11.8-9.6,21.4-21.4,21.4c-11.8,0-21.4-9.6-21.4-21.4c0-11.8,9.6-21.4,21.4-21.4
			C1068.8,435.6,1078.3,445.1,1078.3,456.9z"/>
		<line class="st2" x1="1087.4" y1="538.3" x2="1026.5" y2="538.3"/>
		<line class="st3" x1="1032.8" y1="521.8" x2="1009.8" y2="521.8"/>
		<line class="st3" x1="1104.1" y1="521.8" x2="1081.1" y2="521.8"/>
	</g>
	<g class="st1">
		<path class="st4" d="M1125.4,356.6c0,1.1-0.9,2-2,2H993.9c-1.1,0-2-0.9-2-2v-81.9c0-0.9,0.7-1.6,1.6-1.6h129.9c1.1,0,2,0.9,2,2
			V356.6z"/>
		<rect x="1010.1" y="313.6" class="st5" width="97.2" height="15.6"/>
		<line class="st5" x1="1010.1" y1="300.2" x2="1045.9" y2="300.2"/>
		<line class="st5" x1="1071.7" y1="342.6" x2="1107.3" y2="342.6"/>
	</g>
	<rect x="1162.8" y="288.3" class="st13" width="189.1" height="59.3"/>
	<text transform="matrix(1 0 0 1 1162.824 310.229)" class="st1" style="font-family:'Gotham-Medium'; font-size:30px;">Membership</text>
	<g class="st1">
		<path d="M1050.1,88.4c18.9,0,28.6,7,35,14.2c13.3,14.8,10.9,32.3,7,41.8c-3.9,9.5-1.9,15.5,1.8,23.8c3.7,8.3-2.2,18.2-8.8,20.7
			c-3,1.1-9,2.8-16.9,2.8c-9.5,0-21.8-2.4-34.9-10.8c-24-15.4-33.2-40.6-26.8-61s23.7-31.4,42.9-31.5
			C1049.7,88.4,1049.9,88.4,1050.1,88.4 M1050.1,83.4l-0.6,0c-22.7,0.2-41,13.6-47.7,35c-3.5,11.3-2.7,24,2.2,35.8
			c5.1,12.3,14.4,23,26.7,30.9c11.8,7.6,24.8,11.6,37.6,11.6c9.5,0,16.2-2.2,18.7-3.1c4.8-1.8,9.2-6.4,11.5-11.9
			c2.2-5.3,2.2-10.8,0.1-15.6c-3.5-7.8-4.8-12.3-1.7-19.9c5.2-12.7,5.8-31.7-7.9-47C1082.7,92.4,1072.1,83.4,1050.1,83.4
			L1050.1,83.4z"/>
	</g>
	<circle class="st6" cx="1044" cy="107.5" r="9.5"/>
	<circle class="st6" cx="1025.1" cy="133.5" r="9.5"/>
	<circle class="st6" cx="1044" cy="161.5" r="9.5"/>
	<circle class="st6" cx="1074" cy="172.2" r="9.5"/>
	<path class="st7" d="M1045.2,162.1c0,0-3.1-9.1,1.7-18.6c3.7-7.4,10.2-7.8,12.8-7.2c0.1-0.3,7.1-10.5,17.8-21.8
		c11-11.7,22.7-23,26.8-26.3c4.1-3.3,11.2-8.8,14.9-6.6c3.1,1.9-1.6,10.4-4.7,13.9c-3.1,3.6-12.9,14.7-18.5,20.1
		s-19.3,18.2-31.3,26.5c1.2,2.6-0.7,8.2-6.3,10.5C1052.7,155,1049,154.3,1045.2,162.1z"/>
	<g class="st1">
		<line class="st5" x1="1556.9" y1="173.2" x2="1556.9" y2="72.2"/>
		<polyline class="st5" points="1556.9,74.6 1596.6,89.8 1556.9,105 		"/>
		<ellipse class="st8" cx="1569.4" cy="167.7" rx="55.3" ry="19.7"/>
		<ellipse class="st8" cx="1557.2" cy="167.5" rx="14.3" ry="5.7"/>
	</g>
	<rect x="1665.8" y="116.6" class="st13" width="177" height="59.3"/>
	<text transform="matrix(1 0 0 1 1665.8323 138.5366)" class="st1" style="font-family:'Gotham-Medium'; font-size:30px;">Golf</text>
	<rect x="1666.1" y="300.1" class="st13" width="163" height="59.3"/>
	<text transform="matrix(1 0 0 1 1666.1406 322.0117)" class="st1" style="font-family:'Gotham-Medium'; font-size:30px;">Swimming</text>
	<g class="st1">
		<g>
			<path class="st8" d="M1495.8,346.4c3.9,3.4,8.1,6.8,17.8,6.8"/>
			<path class="st8" d="M1547.2,339.7c-16.8,0-14.2,13.5-33.6,13.5"/>
			<path class="st8" d="M1547.2,339.7c16.8,0,14.2,13.5,33.6,13.5"/>
			<path class="st8" d="M1614,339.7c8.4,0,11.9,3.4,15.8,6.8"/>
			<path class="st8" d="M1614,339.7c-16.8,0-14.2,13.5-33.6,13.5"/>
		</g>
		<path class="st5" d="M1521.9,317.1c0,0,13.2-11.6,19.4-17.8s17.5-6.8,24.2,0c6.8,6.8,31,31,31,31"/>
		<circle class="st5" cx="1602.9" cy="294.9" r="16.5"/>
		<line class="st5" x1="1528" y1="349.1" x2="1572.4" y2="306.1"/>
	</g>
	<path class="st9" d="M2815.4,4567.2"/>
	<rect x="3171.5" y="129.3" class="st13" width="189.1" height="59.3"/>
	<text transform="matrix(1 0 0 1 3171.4753 151.1831)" class="st1" style="font-family:'Gotham-Medium'; font-size:30px;">Camps</text>
	<circle class="st10" cx="3088.2" cy="98.9" r="18.2"/>
	<circle class="st9" cx="3123.8" cy="150" r="13.2"/>
	<line class="st10" x1="3057.7" y1="151.8" x2="3070.7" y2="123.4"/>
	<path class="st10" d="M3035.8,133.2l6.4-11.8c3.7-5.9,8.7-7.5,17.2-3.7l15.6,7.8l25.4,11.9"/>
	<path class="st10" d="M3058.9,149.1c0,0-3.8,8.1-6.8,14.9c-1.4,3.1-2.6,5.3-7.5,4.6s-17.4-2.6-17.4-2.6"/>
	<path class="st10" d="M3058.8,149.4c0,0,8.1,3.8,14.9,6.8c3.1,1.4,5.3,2.6,4.6,7.5c-0.7,4.9-2.8,18.3-2.8,18.3"/>
	<line class="st10" x1="3071.5" y1="97.1" x2="3119.7" y2="97.1"/>
	<rect x="2646.4" y="284.8" class="st13" width="169.1" height="59.3"/>
	<text transform="matrix(1 0 0 1 2646.3796 306.6875)" class="st1"><tspan x="0" y="0" style="font-family:'Gotham-Medium'; font-size:30px;">Sports </tspan><tspan x="0" y="36" style="font-family:'Gotham-Medium'; font-size:30px;">Leagues</tspan></text>
	<path class="st9" d="M2528.5,81.7c10.4-13.5,20.5-11.4,20.7-1.3c0.2,7.2,1.1,20.8,2.8,28.8c1.7,8,9.6,19.7,18.2,26.9
		c8.6,7.2,17.2,7.2,35.1,10.8c12.8,2.5,9.5,20.3,9.5,20.3s-88.4,0-102.1,0s-17.9-13.3-14.8-26.3c5-21.3,3.3-45.9,3.3-45.9
		c0.1-15.6,27-12.5,27-12.5l0.5,10.9"/>
	<path class="st9" d="M2615.2,168.5c2.8,3.6,7.6,20.3-10,20.3c-23,0-103.1,0-111.4,0c-8.3,0-7.2-11,0-11c7.2,0,10.8,0,10.8,0v-12.5"
		/>
	<path class="st10" d="M2516.5,167.1c0,0-1.4,11.7,6.6,11.7s20.5,0,26.6,0c10.1,0,7.6-11.3,7.6-11.3"/>
	<path class="st10" d="M2567.9,167.1c0,0-1.4,11.7,6.6,11.7s18.3,0,24.4,0c10.1,0,7.6-11.3,7.6-11.3"/>
	<path class="st11" d="M2556.7,111.7c0,0-13.3,0-16.6,0s-6.8-1.7-6.8-5.4s3.5-5.4,6.8-5.4s16.6,0,16.6,0V111.7z"/>
	<line class="st11" x1="2573.4" y1="138.9" x2="2564.4" y2="147.9"/>
	<line class="st11" x1="2563.7" y1="130.5" x2="2554.7" y2="139.5"/>
	<line class="st11" x1="2555.7" y1="119.6" x2="2546.6" y2="128.6"/>
	<rect x="2640" y="109.1" class="st13" width="177" height="59.3"/>
	<text transform="matrix(1 0 0 1 2640.0466 130.9966)" class="st1" style="font-family:'Gotham-Medium'; font-size:30px;">Skating</text>
	<g class="st1">
		<line class="st5" x1="2609.3" y1="297.4" x2="2597.3" y2="297.4"/>
		<polyline class="st8" points="2518,287.3 2518,368.2 2588.5,368.2 2588.5,287.3 		"/>
		<path class="st8" d="M2509.3,307.3h-12c0,0,0-4.3,0-21.3c0-17,9.5-24.7,18.5-28.9c4.4-2,16-6.9,16-6.9c7.5,5.5,21.5,5,21.5,5
			s14,0.6,21.5-5c0,0,11.6,4.8,16,6.9c9.1,4.2,18.5,11.9,18.5,28.9c0,17,0,21.3,0,21.3h-12"/>
		<line class="st5" x1="2497.2" y1="297.4" x2="2509.3" y2="297.4"/>
		<path class="st8" d="M2531.8,250.3c0,14.8,21.5,26.4,21.5,26.4s21.5-11.6,21.5-26.4"/>
		<line class="st5" x1="2518" y1="356.9" x2="2588.5" y2="356.9"/>
	</g>
	<circle class="st1" cx="2568.1" cy="294.8" r="6.5"/>
	<rect x="2644.2" y="463.4" class="st13" width="177" height="59.3"/>
	<text transform="matrix(1 0 0 1 2644.1941 485.2651)" class="st1" style="font-family:'Gotham-Medium'; font-size:30px;">Fitness</text>
	<g class="st1">
		<path class="st5" d="M2607.4,483.3h-107c-2.2,0-4-1.8-4-4v-7.4c0-2.2,1.8-4,4-4h107c2.2,0,4,1.8,4,4v7.4
			C2611.4,481.5,2609.6,483.3,2607.4,483.3z"/>
		<path class="st12" d="M2588.1,513.3L2588.1,513.3c-5.7,0-9.1-4.3-9.1-9.5v-57.7c0-5.2,3.4-9.5,9.1-9.5l0,0c5.7,0,9.1,4.3,9.1,9.5
			v57.7C2597.2,509,2593.8,513.3,2588.1,513.3z"/>
		<path class="st12" d="M2519.6,513.3L2519.6,513.3c-5.7,0-9.1-4.3-9.1-9.5v-57.7c0-5.2,3.4-9.5,9.1-9.5l0,0c5.7,0,9.1,4.3,9.1,9.5
			v57.7C2528.7,509,2525.3,513.3,2519.6,513.3z"/>
	</g>
	<rect x="1666.1" y="460.4" class="st13" width="189.1" height="59.3"/>
	<text transform="matrix(1 0 0 1 1666.1416 482.2544)" class="st1" style="font-family:'Gotham-Medium'; font-size:30px;">Therapeutic</text>
	<g class="st1">
		<path class="st8" d="M1499.7,498.7c3.9,3.4,8.1,6.8,17.8,6.8"/>
		<path class="st8" d="M1551.1,491.9c-16.8,0-14.2,13.5-33.6,13.5"/>
		<path class="st8" d="M1551.1,491.9c16.8,0,14.2,13.5,33.6,13.5"/>
		<path class="st8" d="M1617.9,491.9c8.4,0,11.9,3.4,15.8,6.8"/>
		<path class="st8" d="M1617.9,491.9c-16.8,0-14.2,13.5-33.6,13.5"/>
	</g>
	<circle class="st10" cx="1583.9" cy="447.8" r="16.5"/>
	<line class="st10" x1="1562" y1="483.2" x2="1568" y2="470"/>
	<path class="st10" d="M1532,481.1l7.6-13.9c3.4-5.4,7.9-6.8,15.7-3.4l16.8,8.1l28.9,13.5"/>
	<path class="st10" d="M1565.9,511.4c0,0,5.9,5.6,10.9,10.1c2.3,2.1,3.8,3.8,1.8,7.8s-9.5,18.4-9.5,18.4"/>
	<path class="st10" d="M1557,504.4c0,0-3.2,16.7-3.8,19.4c-0.6,2.8-1.8,5.8-4.7,7.7c-2.9,1.9-17.2,11.7-17.2,11.7"/>
</g>
<g id="Homepage_Icons" class="st0">
	<rect class="st13" width="190" height="190"/>
</g>
<g id="Boundary_frame" class="st0">
	<g class="st1">
		<path class="st14" d="M157.1,32.6V157h-124V32.6H157.1 M167.1,22.6h-144V167h144V22.6L167.1,22.6z"/>
	</g>
	<g class="st15">
		<path class="st14" d="M167,22.8v144H23v-144H167 M190-0.2H0v190h190V-0.2L190-0.2z"/>
	</g>
</g>
<g id="Creative_Learning" class="st0">
	<circle class="st16" cx="78.4" cy="66" r="9.5"/>
	<circle class="st16" cx="59.5" cy="92" r="9.5"/>
	<circle class="st16" cx="108.4" cy="130.7" r="9.5"/>
	<path class="st17" d="M122.6,61c0,0-0.7-0.9-1.4-1.6c-6.8-7.6-17.1-15-37.3-14.9c-20.2,0.2-38.3,11.6-45,33s2.3,47.9,27.4,64
		s46.8,11,53.7,8.3c8.2-3.3,14.8-13.3,10.9-23.4c-3-7.6-5.9-12.2-1.6-23.2c2.6-6.7,4.2-16.9,1.2-27.7"/>
	<path class="st18" d="M79.6,120.7c0,0-3.1-9.1,1.7-18.6c3.7-7.4,10.2-7.8,12.8-7.2c0.1-0.3,7.1-10.5,17.8-21.8
		c11-11.7,22.7-23,26.8-26.3s11.2-8.8,14.9-6.6c3.1,1.9-1.6,10.4-4.7,13.9S136,68.8,130.4,74.2c-5.6,5.4-19.3,18.2-31.3,26.5
		c1.2,2.6-0.7,8.2-6.3,10.5S83.4,112.8,79.6,120.7z"/>
	<path class="st18" d="M79.6,120.7c0,0-1.4-4.3-0.8-10.1c-0.1,0-0.2,0-0.3,0c-5.2,0-9.5,4.2-9.5,9.5c0,5.2,4.2,9.5,9.5,9.5
		c5.2,0,9.5-4.2,9.5-9.5c0-2.4-0.9-4.6-2.3-6.2C83.4,114.9,81.5,116.7,79.6,120.7z"/>
</g>
<g id="membership" class="st0">
	<path class="st19" d="M161.9,136.2c0,1.1-0.9,2-2,2H30.4c-1.1,0-2-0.9-2-2V54.4c0-0.9,0.7-1.6,1.6-1.6h129.9c1.1,0,2,0.9,2,2V136.2
		z"/>
	<rect x="46.6" y="93.2" class="st18" width="97.2" height="15.6"/>
	<line class="st18" x1="46.6" y1="79.8" x2="82.3" y2="79.8"/>
	<line class="st18" x1="108.2" y1="122.2" x2="143.8" y2="122.2"/>
</g>
<g id="Locations_and_Rentals" class="st0">
	<g class="st1">
		<path class="st20" d="M130.6,72.4c0,20-36.2,76.9-36.2,76.9S58.2,92.4,58.2,72.4c0-20,16.2-36.2,36.2-36.2
			C114.4,36.3,130.6,52.5,130.6,72.4z"/>
		<path class="st21" d="M115.8,70.2c0,11.8-9.6,21.4-21.4,21.4C82.6,91.6,73,82,73,70.2c0-11.8,9.6-21.4,21.4-21.4
			C106.2,48.9,115.8,58.4,115.8,70.2z"/>
		<line class="st20" x1="124.9" y1="151.6" x2="64" y2="151.6"/>
		<line class="st21" x1="70.2" y1="135.1" x2="47.2" y2="135.1"/>
		<line class="st21" x1="141.6" y1="135.1" x2="118.6" y2="135.1"/>
	</g>
</g>
<g id="Golf" class="st0">
	<g class="st1">
		<line class="st22" x1="82" y1="137.4" x2="82" y2="36.3"/>
		<polyline class="st22" points="82,38.7 121.6,54 82,69.2 		"/>
		<ellipse class="st23" cx="94.4" cy="131.8" rx="55.3" ry="19.7"/>
		<ellipse class="st23" cx="82.3" cy="131.7" rx="14.3" ry="5.7"/>
	</g>
</g>
<g id="Swimming" class="st0">
	<g class="st1">
		<g>
			<path class="st23" d="M28.2,126.1c3.9,3.4,8.1,6.8,17.8,6.8"/>
			<path class="st23" d="M79.6,119.4c-16.8,0-14.2,13.5-33.6,13.5"/>
			<path class="st23" d="M79.6,119.4c16.8,0,14.2,13.5,33.6,13.5"/>
			<path class="st23" d="M146.3,119.4c8.4,0,11.9,3.4,15.8,6.8"/>
			<path class="st23" d="M146.3,119.4c-16.8,0-14.2,13.5-33.6,13.5"/>
		</g>
		<path class="st22" d="M54.3,96.8c0,0,13.2-11.6,19.4-17.8s17.5-6.8,24.2,0s31,31,31,31"/>
		<circle class="st22" cx="135.3" cy="74.6" r="16.5"/>
		<line class="st22" x1="60.4" y1="128.8" x2="104.7" y2="85.8"/>
	</g>
</g>
<g id="Therapeutic" class="st0">
	<g class="st1">
		<g>
			<path class="st23" d="M28,103.7c3.9,3.4,8.1,6.8,17.8,6.8"/>
			<path class="st23" d="M79.4,97c-16.8,0-14.2,13.5-33.6,13.5"/>
			<path class="st23" d="M79.4,97c16.8,0,14.2,13.5,33.6,13.5"/>
			<path class="st23" d="M146.2,97c8.4,0,11.9,3.4,15.8,6.8"/>
			<path class="st23" d="M146.2,97c-16.8,0-14.2,13.5-33.6,13.5"/>
		</g>
		<circle class="st22" cx="112.2" cy="52.8" r="16.5"/>
		<line class="st22" x1="90.3" y1="88.3" x2="96.3" y2="75.1"/>
		<path class="st22" d="M60.3,86.1l7.6-13.9c3.4-5.4,7.9-6.8,15.7-3.4l16.8,8.1l28.9,13.5"/>
		<path class="st22" d="M94.2,116.5c0,0,5.9,5.6,10.9,10.1c2.3,2.1,3.8,3.8,1.8,7.8c-2,4-9.5,18.4-9.5,18.4"/>
		<path class="st22" d="M85.3,109.5c0,0-3.2,16.7-3.8,19.4c-0.6,2.8-1.8,5.8-4.7,7.7c-2.9,1.9-17.2,11.7-17.2,11.7"/>
	</g>
</g>
<g id="Skating" class="st0">
	<path class="st24" d="M157.4,133.5c2.8,3.6,7.6,20.3-10,20.3c-23,0-103.1,0-111.4,0s-7.2-11,0-11s10.8,0,10.8,0v-12.5"/>
	<path class="st18" d="M58.7,132.1c0,0-1.4,11.7,6.6,11.7s20.5,0,26.6,0c10.1,0,7.6-11.3,7.6-11.3"/>
	<path class="st18" d="M110,132.1c0,0-1.4,11.7,6.6,11.7s18.3,0,24.4,0c10.1,0,7.6-11.3,7.6-11.3"/>
	<path class="st18" d="M98.9,76.7c0,0-13.3,0-16.6,0c-3.3,0-6.8-1.7-6.8-5.4c0-3.7,3.5-5.4,6.8-5.4c3.3,0,16.6,0,16.6,0V76.7z"/>
	<path class="st24" d="M92.8,65.2c-0.9-7.2-1.3-14.7-1.4-19.8c-0.3-10.5-11.3-12-20.9,2L71,58.2l-0.5-10.9c0,0-27-3-27,12.5
		c0,0,1.7,24.6-3.3,45.9c-3,13,1.1,26.3,14.8,26.3s102.1,0,102.1,0s3.2-17.7-9.5-20.3c-17.9-3.6-26.5-3.6-35.1-10.8
		c-7.5-6.3-14.5-16-17.3-23.7"/>
	<line class="st25" x1="115.5" y1="103.9" x2="106.5" y2="112.9"/>
	<line class="st25" x1="105.9" y1="95.5" x2="96.8" y2="104.5"/>
	<line class="st25" x1="97.8" y1="84.6" x2="88.8" y2="93.6"/>
</g>
<g id="Sport_Leagues" class="st0">
	<g class="st1">
		<line class="st22" x1="151.2" y1="82.9" x2="139.2" y2="82.9"/>
		<polyline class="st23" points="60,72.9 60,153.7 130.5,153.7 130.5,72.9 		"/>
		<path class="st23" d="M51.2,92.9h-12c0,0,0-4.3,0-21.3s9.5-24.7,18.5-28.9c4.4-2,16-6.9,16-6.9c7.5,5.5,21.5,5,21.5,5
			s14,0.6,21.5-5c0,0,11.6,4.8,16,6.9c9.1,4.2,18.5,11.9,18.5,28.9s0,21.3,0,21.3h-12"/>
		<line class="st22" x1="39.2" y1="82.9" x2="51.2" y2="82.9"/>
		<path class="st23" d="M73.7,35.9c0,14.8,21.5,26.4,21.5,26.4s21.5-11.6,21.5-26.4"/>
		<line class="st22" x1="60" y1="142.5" x2="130.5" y2="142.5"/>
	</g>
	<circle class="st26" cx="110.1" cy="80.4" r="6.5"/>
</g>
<g id="Sports" class="st0">
	<path class="st24" d="M153.2,94.8c0,32.1-26.1,58.2-58.2,58.2c-32.1,0-58.2-26.1-58.2-58.2S62.9,36.6,95,36.6
		C127.2,36.6,153.2,62.6,153.2,94.8z"/>
	<path class="st18" d="M97.6,36.6c15.8,11.4,26.5,33.3,26.5,58.2c0,24.9-10.7,46.7-26.5,58.1"/>
	<line class="st18" x1="36.8" y1="94.8" x2="153.2" y2="94.8"/>
	<path class="st18" d="M146.5,67.6c-4.1,5.7-10.8,9.4-20.5,10.3C92.8,81,67.5,72.1,50.7,57"/>
	<path class="st18" d="M146.5,122c-4.1-5.7-10.8-9.4-20.5-10.3c-33.2-3.1-58.5,5.8-75.3,20.9"/>
</g>
<g id="Fitness_tweaked" class="st0">
	<g class="st1">
		<path class="st23" d="M131.4,134.6L131.4,134.6c-5.7,0-9.1-4.4-9.1-9.7V63.3c0-5.3,3.4-9.7,9.1-9.7h0c5.7,0,9.1,4.4,9.1,9.7v61.6
			C140.5,130.3,137.1,134.6,131.4,134.6z"/>
		<path class="st23" d="M58.9,134.6L58.9,134.6c-5.7,0-9.1-4.4-9.1-9.7V63.3c0-5.3,3.4-9.7,9.1-9.7h0c5.7,0,9.1,4.4,9.1,9.7v61.6
			C67.9,130.3,64.5,134.6,58.9,134.6z"/>
		<path class="st22" d="M39.6,86.4c-2.2,0-4,1.8-4,4v7.4c0,2.2,1.8,4,4,4h10.2V86.4H39.6z"/>
		<rect x="67.9" y="86.4" class="st22" width="54.4" height="15.4"/>
		<path class="st22" d="M150.6,86.4h-10.2v15.4h10.2c2.2,0,4-1.8,4-4v-7.4C154.6,88.2,152.8,86.4,150.6,86.4z"/>
	</g>
</g>
<g id="Camps" class="st0">
	<circle class="st18" cx="99.8" cy="61.2" r="18.7"/>
	<circle class="st24" cx="138.6" cy="113.8" r="13.6"/>
	<line class="st18" x1="68.5" y1="115.6" x2="81.8" y2="86.4"/>
	<path class="st18" d="M45.9,96.5l6.6-12.2c3.9-6.1,9-7.7,17.8-3.8l16,8.1l26.1,12.2"/>
	<path class="st18" d="M69.7,112.9c0,0-3.9,8.4-7,15.3c-1.4,3.2-2.7,5.5-7.7,4.8c-5-0.7-17.9-2.7-17.9-2.7"/>
	<path class="st18" d="M69.6,113.2c0,0,8.4,3.9,15.3,7c3.2,1.4,5.5,2.7,4.8,7.7c-0.7,5-2.8,18.8-2.8,18.8"/>
	<line class="st18" x1="82.7" y1="59.3" x2="132.4" y2="59.3"/>
</g>
<g id="Library_icon_set" class="st0">
</g>
<g id="Library_icon" class="st0">
	<g class="st1">
		<path class="st23" d="M154.8,69.4h9.4v70.5h-57.3c-2.5,4-6.9,6.6-11.9,6.6s-9.4-2.6-11.9-6.6l0,0H25.8V69.4h9.4"/>
		<path class="st23" d="M95,133c0,0,11.2-20.6,50.7-13.2v0V44.5C106.2,37.2,95,57.8,95,57.8S83.8,37.2,44.3,44.5v75.2v0
			C83.8,112.4,95,133,95,133z"/>
	</g>
</g>
<g id="Research_and_learning" class="st0">
	<g class="st1">
		<line class="st27" x1="154.5" y1="49" x2="154.5" y2="116.9"/>
		<line class="st22" x1="88.5" y1="63.6" x2="137.9" y2="63.6"/>
		<line class="st22" x1="111.5" y1="84.2" x2="137.9" y2="84.2"/>
		<line class="st22" x1="111.5" y1="104.8" x2="137.9" y2="104.8"/>
		<line class="st22" x1="88.5" y1="125.4" x2="137.9" y2="125.4"/>
		<path class="st20" d="M71.2,62.4V44c0-0.7,0.6-1.3,1.3-1.3h80.6c0.7,0,1.3,0.6,1.3,1.3v100.7c0,0.7-0.6,1.3-1.3,1.3H72.6
			c-0.7,0-1.3-0.6-1.3-1.3v-21"/>
		<g>
			<line class="st20" x1="60" y1="106.2" x2="34.8" y2="125.9"/>
			<circle class="st27" cx="76.8" cy="93" r="21.1"/>
		</g>
	</g>
</g>
<g id="Movies_and_TV" class="st0">
	<g class="st1">
		<g>
			<line class="st21" x1="47.1" y1="70.4" x2="36.9" y2="70.4"/>
			<line class="st21" x1="47.1" y1="95" x2="36.9" y2="95"/>
			<line class="st21" x1="47.1" y1="119.5" x2="36.9" y2="119.5"/>
		</g>
		<g>
			<line class="st22" x1="153.1" y1="70.4" x2="142.9" y2="70.4"/>
			<line class="st22" x1="153.1" y1="95" x2="142.9" y2="95"/>
			<line class="st22" x1="153.1" y1="119.5" x2="142.9" y2="119.5"/>
		</g>
		<path class="st28" d="M111.5,93.4L85.4,78.3c-1.2-0.7-2.7,0.2-2.7,1.6V110c0,1.4,1.5,2.3,2.7,1.6l26.1-15.1
			C112.7,95.8,112.7,94.1,111.5,93.4z"/>
		<line class="st27" x1="57.9" y1="49.9" x2="57.9" y2="140.1"/>
		<line class="st27" x1="132.1" y1="49.9" x2="132.1" y2="140.1"/>
		<path class="st27" d="M162.4,140.1H27.6c-1,0-1.8-0.8-1.8-1.8V51.7c0-1,0.8-1.8,1.8-1.8h134.7c1,0,1.8,0.8,1.8,1.8v86.6
			C164.2,139.3,163.4,140.1,162.4,140.1z"/>
	</g>
</g>
<g id="Programs_and_events" class="st0">
	<g class="st1">
		<g>
			<path class="st23" d="M148.9,152.7c0,1-0.8,1.8-1.8,1.8H43c-1,0-1.8-0.8-1.8-1.8V48.7c0-1,0.8-1.8,1.8-1.8h104.1
				c1,0,1.8,0.8,1.8,1.8V152.7z"/>
			<line class="st23" x1="41.2" y1="73.3" x2="148.9" y2="73.3"/>
			<line class="st23" x1="73.6" y1="35" x2="73.6" y2="56.4"/>
			<line class="st23" x1="115.5" y1="35" x2="115.5" y2="56.4"/>
		</g>
		<g>
			<line class="st22" x1="106.1" y1="86.4" x2="121.2" y2="101.5"/>
			<line class="st22" x1="121.2" y1="86.4" x2="106.1" y2="101.5"/>
			<line class="st22" x1="64.6" y1="94" x2="85.1" y2="94"/>
			<line class="st22" x1="64.6" y1="135.8" x2="85.1" y2="135.8"/>
			<line class="st22" x1="64.6" y1="114.9" x2="85.1" y2="114.9"/>
			<line class="st22" x1="103.3" y1="114.9" x2="123.8" y2="114.9"/>
			<line class="st22" x1="103.3" y1="135.8" x2="123.8" y2="135.8"/>
		</g>
	</g>
</g>
<g id="News_and_magazines" class="st0">
	<g class="st1">
		<path class="st27" d="M154.1,61.7h-16.9V43c0-1.1-0.9-2-2-2H35.9c-1.1,0-2,0.9-2,2v103.5c0,1.1,0.9,2,2,2h29h70.3h0.7
			c11.2,0,20.2-9,20.2-20.2V63.8C156.1,62.7,155.2,61.7,154.1,61.7z"/>
		<line class="st20" x1="137.2" y1="55.2" x2="137.2" y2="127.4"/>
		<line class="st22" x1="50.5" y1="105.3" x2="79.1" y2="105.3"/>
		<line class="st22" x1="50.5" y1="127.7" x2="79.1" y2="127.7"/>
		<line class="st22" x1="50.5" y1="82.9" x2="79.1" y2="82.9"/>
		
			<rect x="91.8" y="82.9" transform="matrix(-1 -1.224647e-16 1.224647e-16 -1 212.3866 210.6393)" class="st22" width="28.8" height="44.8"/>
		<line class="st22" x1="120.6" y1="60.6" x2="50.5" y2="60.6"/>
	</g>
</g>
<g id="Books_x2C__eBooks_and_audiobooks" class="st0">
	<g class="st1">
		<g>
			<polygon class="st22" points="79.9,115.3 95.9,130.5 95.9,83.2 79.9,98.3 67.6,98.3 67.6,115.3 79.9,115.3 			"/>
			<path class="st22" d="M107.5,90.1c8.4,0,15.2,7.5,15.2,16.8s-6.8,16.8-15.2,16.8"/>
			<path class="st22" d="M105.4,99.6c3.6,0,6.5,3.2,6.5,7.2c0,4-2.9,7.2-6.5,7.2"/>
		</g>
		<g>
			<path class="st23" d="M139.5,33.7H63.3C56,33.7,50,38.6,50,46S56,58.2,63.3,58.2h76.3V156H50V45.8"/>
			<path class="st23" d="M136.1,33.7c-5.6,0-9.2,4.9-9.2,12.2s3.6,12.2,9.2,12.2"/>
		</g>
	</g>
</g>
<g id="Music_and_video_games">
	<path class="st22" d="M150.1,62.2c0.6,2.7,0.9,5.5,0.9,8.3l-7.7,64.4"/>
	<path class="st22" d="M80.5,94.5l-3-24c0-2.9,0.3-5.6,0.9-8.3"/>
	<path class="st27" d="M146.3,63c-0.9,0.2-1.9-0.3-2.1-1.2c-3.8-13.3-15.9-22.5-30-22.5c-14,0-26.1,9.2-30,22.5
		c-0.3,0.9-1.2,1.5-2.1,1.2l-7.4-1.7c-1-0.2-1.6-1.3-1.3-2.3c5.1-18.3,21.6-31,40.8-31c19.2,0,35.7,12.6,40.8,30.9
		c0.3,1-0.3,2-1.3,2.3L146.3,63z"/>
	<path class="st27" d="M88.2,134.9c-13,1.6-24.8-7.8-26.1-20.9c-1.2-12.7,8.2-23.9,20.9-25.5l6.7-0.8c1-0.1,1.9,0.6,2,1.6L97,132
		c0.1,1-0.6,1.9-1.6,2L88.2,134.9z"/>
	<path class="st27" d="M140.3,134.8c13,1.6,24.8-7.8,26.1-20.9c1.2-12.7-8.2-23.9-20.9-25.5l-6.7-0.8c-1-0.1-1.9,0.6-2,1.6
		l-5.3,42.7c-0.1,1,0.6,1.9,1.6,2L140.3,134.8z"/>
	<path class="st22" d="M23.5,90.5c11.6,0,20.9,9.4,20.9,20.9l0,31.8c0,11.6,9.4,20.9,20.9,20.9s22.3-9.9,20.8-23.3l-6.5-52.4"/>
</g>
<g id="membership_copy" class="st0">
	<path class="st19" d="M161.9,136.2c0,1.1-0.9,2-2,2H30.4c-1.1,0-2-0.9-2-2V54.4c0-0.9,0.7-1.6,1.6-1.6h129.9c1.1,0,2,0.9,2,2V136.2
		z"/>
	<rect x="46.6" y="93.2" class="st18" width="97.2" height="15.6"/>
	<line class="st18" x1="46.6" y1="79.8" x2="82.3" y2="79.8"/>
	<line class="st18" x1="108.2" y1="122.2" x2="143.8" y2="122.2"/>
</g>
<g id="Locations_and_Rentals_copy" class="st0">
	<g class="st1">
		<path class="st20" d="M130.6,72.4c0,20-36.2,76.9-36.2,76.9S58.2,92.4,58.2,72.4c0-20,16.2-36.2,36.2-36.2
			C114.4,36.3,130.6,52.5,130.6,72.4z"/>
		<path class="st21" d="M115.8,70.2c0,11.8-9.6,21.4-21.4,21.4C82.6,91.6,73,82,73,70.2c0-11.8,9.6-21.4,21.4-21.4
			C106.2,48.9,115.8,58.4,115.8,70.2z"/>
		<line class="st20" x1="124.9" y1="151.6" x2="64" y2="151.6"/>
		<line class="st21" x1="70.2" y1="135.1" x2="47.2" y2="135.1"/>
		<line class="st21" x1="141.6" y1="135.1" x2="118.6" y2="135.1"/>
	</g>
</g>
</svg>
